<?xml version="1.0" encoding="UTF-8" standalone="no"?>
<!DOCTYPE svg PUBLIC "-//W3C//DTD SVG 1.1//EN"
 "http://www.w3.org/Graphics/SVG/1.1/DTD/svg11.dtd">
<!-- Generated by graphviz version 14.0.2 (20251019.1705)
 -->
<!-- Title: SensCoder_Architecture Pages: 1 -->
<svg width="3725pt" height="722pt"
 viewBox="0.00 0.00 3725.00 722.00" xmlns="http://www.w3.org/2000/svg" xmlns:xlink="http://www.w3.org/1999/xlink">
<g id="graph0" class="graph" transform="scale(1 1) rotate(0) translate(4 717.63)">
<title>SensCoder_Architecture</title>
<polygon fill="white" stroke="none" points="-4,4 -4,-717.63 3721.25,-717.63 3721.25,4 -4,4"/>
<g id="clust1" class="cluster">
<title>cluster_users</title>
<polygon fill="lightgrey" stroke="lightgrey" points="8,-309 8,-394.75 532,-394.75 532,-309 8,-309"/>
<text xml:space="preserve" text-anchor="middle" x="270" y="-377.45" font-family="Times New Roman,serif" font-size="14.00">Users &amp; AI Applications</text>
</g>
<g id="clust2" class="cluster">
<title>cluster_frontend</title>
<polygon fill="lightgreen" stroke="lightgreen" points="1908,-476.13 1908,-705.63 2326,-705.63 2326,-476.13 1908,-476.13"/>
<text xml:space="preserve" text-anchor="middle" x="2117" y="-688.33" font-family="Times New Roman,serif" font-size="14.00">Frontend &#45; React/TypeScript (Vite)</text>
</g>
<g id="clust3" class="cluster">
<title>cluster_backend</title>
<polygon fill="lightyellow" stroke="lightyellow" points="1946,-154.5 1946,-422.63 2832,-422.63 2832,-154.5 1946,-154.5"/>
<text xml:space="preserve" text-anchor="middle" x="2389" y="-405.33" font-family="Times New Roman,serif" font-size="14.00">Backend &#45; Node.js/Express</text>
</g>
<g id="clust4" class="cluster">
<title>cluster_auth</title>
<polygon fill="lightyellow" stroke="lightyellow" points="2420,-162.5 2420,-239 2824,-239 2824,-162.5 2420,-162.5"/>
<text xml:space="preserve" text-anchor="middle" x="2622" y="-221.7" font-family="Times New Roman,serif" font-size="14.00">Authentication &amp; Security</text>
</g>
<g id="clust5" class="cluster">
<title>cluster_routes</title>
<polygon fill="lightyellow" stroke="lightyellow" points="2189,-313.63 2189,-390.13 2818,-390.13 2818,-313.63 2189,-313.63"/>
<text xml:space="preserve" text-anchor="middle" x="2503.5" y="-372.83" font-family="Times New Roman,serif" font-size="14.00">API Routes</text>
</g>
<g id="clust6" class="cluster">
<title>cluster_services</title>
<polygon fill="lightyellow" stroke="lightyellow" points="1954,-162.5 1954,-239 2378,-239 2378,-162.5 1954,-162.5"/>
<text xml:space="preserve" text-anchor="middle" x="2166" y="-221.7" font-family="Times New Roman,serif" font-size="14.00">Services &amp; Logic</text>
</g>
<g id="clust7" class="cluster">
<title>cluster_database</title>
<polygon fill="lightcoral" stroke="lightcoral" points="3032,-8 3032,-92.5 3630,-92.5 3630,-8 3032,-8"/>
<text xml:space="preserve" text-anchor="middle" x="3331" y="-75.2" font-family="Times New Roman,serif" font-size="14.00">Database &#45; MongoDB</text>
</g>
<g id="clust8" class="cluster">
<title>cluster_mcp</title>
<polygon fill="lightblue" stroke="lightblue" points="566,-305.63 566,-585.13 1656,-585.13 1656,-305.63 566,-305.63"/>
<text xml:space="preserve" text-anchor="middle" x="1111" y="-567.83" font-family="Times New Roman,serif" font-size="14.00">MCP Server &#45; FastAPI/Python</text>
</g>
<g id="clust9" class="cluster">
<title>cluster_mcp_core</title>
<polygon fill="lightblue" stroke="lightblue" points="694,-476.13 694,-552.63 1214,-552.63 1214,-476.13 694,-476.13"/>
<text xml:space="preserve" text-anchor="middle" x="954" y="-535.33" font-family="Times New Roman,serif" font-size="14.00">MCP Protocol Core</text>
</g>
<g id="clust10" class="cluster">
<title>cluster_tools</title>
<polygon fill="lightblue" stroke="lightblue" points="886,-313.63 886,-390.13 1648,-390.13 1648,-313.63 886,-313.63"/>
<text xml:space="preserve" text-anchor="middle" x="1267" y="-372.83" font-family="Times New Roman,serif" font-size="14.00">Available Tools</text>
</g>
<g id="clust11" class="cluster">
<title>cluster_mcp_auth</title>
<polygon fill="lightblue" stroke="lightblue" points="574,-313.63 574,-390.13 844,-390.13 844,-313.63 574,-313.63"/>
<text xml:space="preserve" text-anchor="middle" x="709" y="-372.83" font-family="Times New Roman,serif" font-size="14.00">MCP Authentication</text>
</g>
<g id="clust12" class="cluster">
<title>cluster_external</title>
<polygon fill="lightpink" stroke="lightpink" points="1044,-148.5 1044,-253 1663,-253 1663,-148.5 1044,-148.5"/>
<text xml:space="preserve" text-anchor="middle" x="1353.5" y="-235.7" font-family="Times New Roman,serif" font-size="14.00">External Services &amp; APIs</text>
</g>
<!-- web_users -->
<g id="node1" class="node">
<title>web_users</title>
<ellipse fill="beige" stroke="black" cx="62" cy="-339.63" rx="45.79" ry="22.63"/>
<text xml:space="preserve" text-anchor="middle" x="62" y="-342.13" font-family="Helvetica,sans-Serif" font-size="10.00">Web Users</text>
<text xml:space="preserve" text-anchor="middle" x="62" y="-330.13" font-family="Helvetica,sans-Serif" font-size="10.00">(Browser)</text>
</g>
<!-- dashboard -->
<g id="node4" class="node">
<title>dashboard</title>
<path fill="lightblue" stroke="black" d="M2010,-673.13C2010,-673.13 1928,-673.13 1928,-673.13 1922,-673.13 1916,-667.13 1916,-661.13 1916,-661.13 1916,-649.13 1916,-649.13 1916,-643.13 1922,-637.13 1928,-637.13 1928,-637.13 2010,-637.13 2010,-637.13 2016,-637.13 2022,-643.13 2022,-649.13 2022,-649.13 2022,-661.13 2022,-661.13 2022,-667.13 2016,-673.13 2010,-673.13"/>
<text xml:space="preserve" text-anchor="middle" x="1969" y="-657.63" font-family="Helvetica,sans-Serif" font-size="10.00">Dashboard</text>
<text xml:space="preserve" text-anchor="middle" x="1969" y="-645.63" font-family="Helvetica,sans-Serif" font-size="10.00">(Chat, MCP Control)</text>
</g>
<!-- web_users&#45;&gt;dashboard -->
<g id="edge1" class="edge">
<title>web_users&#45;&gt;dashboard</title>
<path fill="none" stroke="black" d="M62,-362.56C62,-435.13 62,-655 62,-655 62,-655 1903.99,-655 1903.99,-655"/>
<polygon fill="black" stroke="black" points="1903.99,-658.5 1913.99,-655 1903.99,-651.5 1903.99,-658.5"/>
<text xml:space="preserve" text-anchor="middle" x="105.62" y="-498.83" font-family="Helvetica,sans-Serif" font-size="9.00">Browser Access</text>
</g>
<!-- admin_users -->
<g id="node2" class="node">
<title>admin_users</title>
<ellipse fill="lightcoral" stroke="black" cx="221" cy="-339.63" rx="55.33" ry="22.63"/>
<text xml:space="preserve" text-anchor="middle" x="221" y="-342.13" font-family="Helvetica,sans-Serif" font-size="10.00">Admin Users</text>
<text xml:space="preserve" text-anchor="middle" x="221" y="-330.13" font-family="Helvetica,sans-Serif" font-size="10.00">(Management)</text>
</g>
<!-- admin_panel -->
<g id="node5" class="node">
<title>admin_panel</title>
<path fill="lightblue" stroke="black" d="M2165.88,-673.13C2165.88,-673.13 2092.12,-673.13 2092.12,-673.13 2086.12,-673.13 2080.12,-667.13 2080.12,-661.13 2080.12,-661.13 2080.12,-649.13 2080.12,-649.13 2080.12,-643.13 2086.12,-637.13 2092.12,-637.13 2092.12,-637.13 2165.88,-637.13 2165.88,-637.13 2171.88,-637.13 2177.88,-643.13 2177.88,-649.13 2177.88,-649.13 2177.88,-661.13 2177.88,-661.13 2177.88,-667.13 2171.88,-673.13 2165.88,-673.13"/>
<text xml:space="preserve" text-anchor="middle" x="2129" y="-657.63" font-family="Helvetica,sans-Serif" font-size="10.00">Admin Panel</text>
<text xml:space="preserve" text-anchor="middle" x="2129" y="-645.63" font-family="Helvetica,sans-Serif" font-size="10.00">(User Mgmt, Logs)</text>
</g>
<!-- admin_users&#45;&gt;admin_panel -->
<g id="edge2" class="edge">
<title>admin_users&#45;&gt;admin_panel</title>
<path fill="none" stroke="black" d="M221,-362.51C221,-400.15 221,-471 221,-471 221,-471 2105,-471 2105,-471 2105,-471 2105,-625.29 2105,-625.29"/>
<polygon fill="black" stroke="black" points="2101.5,-625.29 2105,-635.29 2108.5,-625.29 2101.5,-625.29"/>
<text xml:space="preserve" text-anchor="middle" x="307.12" y="-498.83" font-family="Helvetica,sans-Serif" font-size="9.00">Admin Dashboard</text>
</g>
<!-- ai_apps -->
<g id="node3" class="node">
<title>ai_apps</title>
<ellipse fill="lightcyan" stroke="black" cx="429" cy="-339.63" rx="94.58" ry="22.63"/>
<text xml:space="preserve" text-anchor="middle" x="429" y="-342.13" font-family="Helvetica,sans-Serif" font-size="10.00">AI Applications</text>
<text xml:space="preserve" text-anchor="middle" x="429" y="-330.13" font-family="Helvetica,sans-Serif" font-size="10.00">(Claude, Cursor, VS Code)</text>
</g>
<!-- mcp_server -->
<g id="node37" class="node">
<title>mcp_server</title>
<path fill="lightblue" stroke="black" d="M450.5,-206.5C450.5,-206.5 407.5,-206.5 407.5,-206.5 401.5,-206.5 395.5,-200.5 395.5,-194.5 395.5,-194.5 395.5,-182.5 395.5,-182.5 395.5,-176.5 401.5,-170.5 407.5,-170.5 407.5,-170.5 450.5,-170.5 450.5,-170.5 456.5,-170.5 462.5,-176.5 462.5,-182.5 462.5,-182.5 462.5,-194.5 462.5,-194.5 462.5,-200.5 456.5,-206.5 450.5,-206.5"/>
<text xml:space="preserve" text-anchor="middle" x="429" y="-185" font-family="Helvetica,sans-Serif" font-size="10.00">mcp_server</text>
</g>
<!-- ai_apps&#45;&gt;mcp_server -->
<g id="edge3" class="edge">
<title>ai_apps&#45;&gt;mcp_server</title>
<path fill="none" stroke="black" stroke-dasharray="5,2" d="M429,-316.67C429,-316.67 429,-218.42 429,-218.42"/>
<polygon fill="black" stroke="black" points="432.5,-218.42 429,-208.42 425.5,-218.42 432.5,-218.42"/>
<text xml:space="preserve" text-anchor="middle" x="457.12" y="-265.45" font-family="Helvetica,sans-Serif" font-size="9.00">MCP Protocol</text>
</g>
<!-- api_client -->
<g id="node7" class="node">
<title>api_client</title>
<path fill="lightblue" stroke="black" d="M2305.12,-520.13C2305.12,-520.13 2250.88,-520.13 2250.88,-520.13 2244.88,-520.13 2238.88,-514.13 2238.88,-508.13 2238.88,-508.13 2238.88,-496.13 2238.88,-496.13 2238.88,-490.13 2244.88,-484.13 2250.88,-484.13 2250.88,-484.13 2305.12,-484.13 2305.12,-484.13 2311.12,-484.13 2317.12,-490.13 2317.12,-496.13 2317.12,-496.13 2317.12,-508.13 2317.12,-508.13 2317.12,-514.13 2311.12,-520.13 2305.12,-520.13"/>
<text xml:space="preserve" text-anchor="middle" x="2278" y="-504.63" font-family="Helvetica,sans-Serif" font-size="10.00">API Client</text>
<text xml:space="preserve" text-anchor="middle" x="2278" y="-492.63" font-family="Helvetica,sans-Serif" font-size="10.00">(axios + JWT)</text>
</g>
<!-- dashboard&#45;&gt;api_client -->
<g id="edge4" class="edge">
<title>dashboard&#45;&gt;api_client</title>
<path fill="none" stroke="black" d="M2006.94,-636.84C2006.94,-597.02 2006.94,-506 2006.94,-506 2006.94,-506 2227.07,-506 2227.07,-506"/>
<polygon fill="black" stroke="black" points="2227.07,-509.5 2237.07,-506 2227.07,-502.5 2227.07,-509.5"/>
</g>
<!-- admin_panel&#45;&gt;api_client -->
<g id="edge5" class="edge">
<title>admin_panel&#45;&gt;api_client</title>
<path fill="none" stroke="black" d="M2161.88,-636.84C2161.88,-598.45 2161.88,-513 2161.88,-513 2161.88,-513 2227.17,-513 2227.17,-513"/>
<polygon fill="black" stroke="black" points="2227.17,-516.5 2237.17,-513 2227.17,-509.5 2227.17,-516.5"/>
</g>
<!-- auth_ui -->
<g id="node6" class="node">
<title>auth_ui</title>
<path fill="lightblue" stroke="black" d="M2305.62,-673.13C2305.62,-673.13 2248.38,-673.13 2248.38,-673.13 2242.38,-673.13 2236.38,-667.13 2236.38,-661.13 2236.38,-661.13 2236.38,-649.13 2236.38,-649.13 2236.38,-643.13 2242.38,-637.13 2248.38,-637.13 2248.38,-637.13 2305.62,-637.13 2305.62,-637.13 2311.62,-637.13 2317.62,-643.13 2317.62,-649.13 2317.62,-649.13 2317.62,-661.13 2317.62,-661.13 2317.62,-667.13 2311.62,-673.13 2305.62,-673.13"/>
<text xml:space="preserve" text-anchor="middle" x="2277" y="-657.63" font-family="Helvetica,sans-Serif" font-size="10.00">Authentication</text>
<text xml:space="preserve" text-anchor="middle" x="2277" y="-645.63" font-family="Helvetica,sans-Serif" font-size="10.00">(Login, Signup)</text>
</g>
<!-- auth_ui&#45;&gt;api_client -->
<g id="edge6" class="edge">
<title>auth_ui&#45;&gt;api_client</title>
<path fill="none" stroke="black" d="M2278,-636.67C2278,-636.67 2278,-531.69 2278,-531.69"/>
<polygon fill="black" stroke="black" points="2281.5,-531.69 2278,-521.69 2274.5,-531.69 2281.5,-531.69"/>
</g>
<!-- auth_routes -->
<g id="node11" class="node">
<title>auth_routes</title>
<path fill="lightblue" stroke="black" d="M2661.38,-357.63C2661.38,-357.63 2614.62,-357.63 2614.62,-357.63 2608.62,-357.63 2602.62,-351.63 2602.62,-345.63 2602.62,-345.63 2602.62,-333.63 2602.62,-333.63 2602.62,-327.63 2608.62,-321.63 2614.62,-321.63 2614.62,-321.63 2661.38,-321.63 2661.38,-321.63 2667.38,-321.63 2673.38,-327.63 2673.38,-333.63 2673.38,-333.63 2673.38,-345.63 2673.38,-345.63 2673.38,-351.63 2667.38,-357.63 2661.38,-357.63"/>
<text xml:space="preserve" text-anchor="middle" x="2638" y="-342.13" font-family="Helvetica,sans-Serif" font-size="10.00">Auth Routes</text>
<text xml:space="preserve" text-anchor="middle" x="2638" y="-330.13" font-family="Helvetica,sans-Serif" font-size="10.00">(/auth/*)</text>
</g>
<!-- api_client&#45;&gt;auth_routes -->
<g id="edge7" class="edge">
<title>api_client&#45;&gt;auth_routes</title>
<path fill="none" stroke="black" d="M2317.56,-502C2411.07,-502 2638,-502 2638,-502 2638,-502 2638,-369.45 2638,-369.45"/>
<polygon fill="black" stroke="black" points="2641.5,-369.45 2638,-359.45 2634.5,-369.45 2641.5,-369.45"/>
<text xml:space="preserve" text-anchor="middle" x="2625.25" y="-432.58" font-family="Helvetica,sans-Serif" font-size="9.00">HTTP Requests</text>
</g>
<!-- admin_routes -->
<g id="node12" class="node">
<title>admin_routes</title>
<path fill="lightblue" stroke="black" d="M2798.12,-357.63C2798.12,-357.63 2743.88,-357.63 2743.88,-357.63 2737.88,-357.63 2731.88,-351.63 2731.88,-345.63 2731.88,-345.63 2731.88,-333.63 2731.88,-333.63 2731.88,-327.63 2737.88,-321.63 2743.88,-321.63 2743.88,-321.63 2798.12,-321.63 2798.12,-321.63 2804.12,-321.63 2810.12,-327.63 2810.12,-333.63 2810.12,-333.63 2810.12,-345.63 2810.12,-345.63 2810.12,-351.63 2804.12,-357.63 2798.12,-357.63"/>
<text xml:space="preserve" text-anchor="middle" x="2771" y="-342.13" font-family="Helvetica,sans-Serif" font-size="10.00">Admin Routes</text>
<text xml:space="preserve" text-anchor="middle" x="2771" y="-330.13" font-family="Helvetica,sans-Serif" font-size="10.00">(/admin/*)</text>
</g>
<!-- api_client&#45;&gt;admin_routes -->
<g id="edge8" class="edge">
<title>api_client&#45;&gt;admin_routes</title>
<path fill="none" stroke="black" d="M2317.51,-511C2434.5,-511 2771,-511 2771,-511 2771,-511 2771,-369.48 2771,-369.48"/>
<polygon fill="black" stroke="black" points="2774.5,-369.48 2771,-359.48 2767.5,-369.48 2774.5,-369.48"/>
</g>
<!-- chat_routes -->
<g id="node13" class="node">
<title>chat_routes</title>
<path fill="lightblue" stroke="black" d="M2256.75,-357.63C2256.75,-357.63 2209.25,-357.63 2209.25,-357.63 2203.25,-357.63 2197.25,-351.63 2197.25,-345.63 2197.25,-345.63 2197.25,-333.63 2197.25,-333.63 2197.25,-327.63 2203.25,-321.63 2209.25,-321.63 2209.25,-321.63 2256.75,-321.63 2256.75,-321.63 2262.75,-321.63 2268.75,-327.63 2268.75,-333.63 2268.75,-333.63 2268.75,-345.63 2268.75,-345.63 2268.75,-351.63 2262.75,-357.63 2256.75,-357.63"/>
<text xml:space="preserve" text-anchor="middle" x="2233" y="-342.13" font-family="Helvetica,sans-Serif" font-size="10.00">Chat Routes</text>
<text xml:space="preserve" text-anchor="middle" x="2233" y="-330.13" font-family="Helvetica,sans-Serif" font-size="10.00">(/chat)</text>
</g>
<!-- api_client&#45;&gt;chat_routes -->
<g id="edge9" class="edge">
<title>api_client&#45;&gt;chat_routes</title>
<path fill="none" stroke="black" d="M2253.81,-483.8C2253.81,-483.8 2253.81,-369.15 2253.81,-369.15"/>
<polygon fill="black" stroke="black" points="2257.31,-369.15 2253.81,-359.15 2250.31,-369.15 2257.31,-369.15"/>
</g>
<!-- mcp_routes -->
<g id="node14" class="node">
<title>mcp_routes</title>
<path fill="lightblue" stroke="black" d="M2387.5,-357.63C2387.5,-357.63 2338.5,-357.63 2338.5,-357.63 2332.5,-357.63 2326.5,-351.63 2326.5,-345.63 2326.5,-345.63 2326.5,-333.63 2326.5,-333.63 2326.5,-327.63 2332.5,-321.63 2338.5,-321.63 2338.5,-321.63 2387.5,-321.63 2387.5,-321.63 2393.5,-321.63 2399.5,-327.63 2399.5,-333.63 2399.5,-333.63 2399.5,-345.63 2399.5,-345.63 2399.5,-351.63 2393.5,-357.63 2387.5,-357.63"/>
<text xml:space="preserve" text-anchor="middle" x="2363" y="-342.13" font-family="Helvetica,sans-Serif" font-size="10.00">MCP Routes</text>
<text xml:space="preserve" text-anchor="middle" x="2363" y="-330.13" font-family="Helvetica,sans-Serif" font-size="10.00">(/mcp/*)</text>
</g>
<!-- api_client&#45;&gt;mcp_routes -->
<g id="edge10" class="edge">
<title>api_client&#45;&gt;mcp_routes</title>
<path fill="none" stroke="black" d="M2308.88,-483.91C2308.88,-442.73 2308.88,-346 2308.88,-346 2308.88,-346 2314.49,-346 2314.49,-346"/>
<polygon fill="black" stroke="black" points="2314.49,-349.5 2324.49,-346 2314.49,-342.5 2314.49,-349.5"/>
</g>
<!-- settings_routes -->
<g id="node15" class="node">
<title>settings_routes</title>
<path fill="lightblue" stroke="black" d="M2532.25,-357.63C2532.25,-357.63 2469.75,-357.63 2469.75,-357.63 2463.75,-357.63 2457.75,-351.63 2457.75,-345.63 2457.75,-345.63 2457.75,-333.63 2457.75,-333.63 2457.75,-327.63 2463.75,-321.63 2469.75,-321.63 2469.75,-321.63 2532.25,-321.63 2532.25,-321.63 2538.25,-321.63 2544.25,-327.63 2544.25,-333.63 2544.25,-333.63 2544.25,-345.63 2544.25,-345.63 2544.25,-351.63 2538.25,-357.63 2532.25,-357.63"/>
<text xml:space="preserve" text-anchor="middle" x="2501" y="-342.13" font-family="Helvetica,sans-Serif" font-size="10.00">Settings Routes</text>
<text xml:space="preserve" text-anchor="middle" x="2501" y="-330.13" font-family="Helvetica,sans-Serif" font-size="10.00">(/settings)</text>
</g>
<!-- api_client&#45;&gt;settings_routes -->
<g id="edge11" class="edge">
<title>api_client&#45;&gt;settings_routes</title>
<path fill="none" stroke="black" d="M2317.61,-493C2381.69,-493 2501,-493 2501,-493 2501,-493 2501,-369.34 2501,-369.34"/>
<polygon fill="black" stroke="black" points="2504.5,-369.34 2501,-359.34 2497.5,-369.34 2504.5,-369.34"/>
</g>
<!-- jwt_auth -->
<g id="node8" class="node">
<title>jwt_auth</title>
<path fill="lightblue" stroke="black" d="M2649.75,-206.5C2649.75,-206.5 2572.25,-206.5 2572.25,-206.5 2566.25,-206.5 2560.25,-200.5 2560.25,-194.5 2560.25,-194.5 2560.25,-182.5 2560.25,-182.5 2560.25,-176.5 2566.25,-170.5 2572.25,-170.5 2572.25,-170.5 2649.75,-170.5 2649.75,-170.5 2655.75,-170.5 2661.75,-176.5 2661.75,-182.5 2661.75,-182.5 2661.75,-194.5 2661.75,-194.5 2661.75,-200.5 2655.75,-206.5 2649.75,-206.5"/>
<text xml:space="preserve" text-anchor="middle" x="2611" y="-185" font-family="Helvetica,sans-Serif" font-size="10.00">JWT Authentication</text>
</g>
<!-- admin_mw -->
<g id="node9" class="node">
<title>admin_mw</title>
<path fill="lightblue" stroke="black" d="M2804.12,-206.5C2804.12,-206.5 2731.88,-206.5 2731.88,-206.5 2725.88,-206.5 2719.88,-200.5 2719.88,-194.5 2719.88,-194.5 2719.88,-182.5 2719.88,-182.5 2719.88,-176.5 2725.88,-170.5 2731.88,-170.5 2731.88,-170.5 2804.12,-170.5 2804.12,-170.5 2810.12,-170.5 2816.12,-176.5 2816.12,-182.5 2816.12,-182.5 2816.12,-194.5 2816.12,-194.5 2816.12,-200.5 2810.12,-206.5 2804.12,-206.5"/>
<text xml:space="preserve" text-anchor="middle" x="2768" y="-185" font-family="Helvetica,sans-Serif" font-size="10.00">Admin Middleware</text>
</g>
<!-- rate_limit -->
<g id="node10" class="node">
<title>rate_limit</title>
<path fill="lightblue" stroke="black" d="M2489.88,-206.5C2489.88,-206.5 2440.12,-206.5 2440.12,-206.5 2434.12,-206.5 2428.12,-200.5 2428.12,-194.5 2428.12,-194.5 2428.12,-182.5 2428.12,-182.5 2428.12,-176.5 2434.12,-170.5 2440.12,-170.5 2440.12,-170.5 2489.88,-170.5 2489.88,-170.5 2495.88,-170.5 2501.88,-176.5 2501.88,-182.5 2501.88,-182.5 2501.88,-194.5 2501.88,-194.5 2501.88,-200.5 2495.88,-206.5 2489.88,-206.5"/>
<text xml:space="preserve" text-anchor="middle" x="2465" y="-185" font-family="Helvetica,sans-Serif" font-size="10.00">Rate Limiting</text>
</g>
<!-- auth_routes&#45;&gt;jwt_auth -->
<g id="edge12" class="edge">
<title>auth_routes&#45;&gt;jwt_auth</title>
<path fill="none" stroke="black" d="M2632.19,-321.4C2632.19,-321.4 2632.19,-218.31 2632.19,-218.31"/>
<polygon fill="black" stroke="black" points="2635.69,-218.31 2632.19,-208.31 2628.69,-218.31 2635.69,-218.31"/>
<text xml:space="preserve" text-anchor="middle" x="2642.25" y="-265.45" font-family="Helvetica,sans-Serif" font-size="9.00">Validate Credentials</text>
</g>
<!-- users -->
<g id="node19" class="node">
<title>users</title>
<path fill="lightgreen" stroke="black" d="M3153.75,-56C3153.75,-58.21 3128.31,-60 3097,-60 3065.69,-60 3040.25,-58.21 3040.25,-56 3040.25,-56 3040.25,-20 3040.25,-20 3040.25,-17.79 3065.69,-16 3097,-16 3128.31,-16 3153.75,-17.79 3153.75,-20 3153.75,-20 3153.75,-56 3153.75,-56"/>
<path fill="none" stroke="black" d="M3153.75,-56C3153.75,-53.79 3128.31,-52 3097,-52 3065.69,-52 3040.25,-53.79 3040.25,-56"/>
<text xml:space="preserve" text-anchor="middle" x="3097" y="-40.5" font-family="Helvetica,sans-Serif" font-size="10.00">Users Collection</text>
<text xml:space="preserve" text-anchor="middle" x="3097" y="-28.5" font-family="Helvetica,sans-Serif" font-size="10.00">(auth, profile, settings)</text>
</g>
<!-- auth_routes&#45;&gt;users -->
<g id="edge16" class="edge">
<title>auth_routes&#45;&gt;users</title>
<path fill="none" stroke="black" d="M2667.56,-321.2C2667.56,-256.7 2667.56,-45 2667.56,-45 2667.56,-45 3028.46,-45 3028.46,-45"/>
<polygon fill="black" stroke="black" points="3028.46,-48.5 3038.46,-45 3028.46,-41.5 3028.46,-48.5"/>
<text xml:space="preserve" text-anchor="middle" x="2956.38" y="-185.2" font-family="Helvetica,sans-Serif" font-size="9.00">User CRUD</text>
</g>
<!-- admin_routes&#45;&gt;admin_mw -->
<g id="edge13" class="edge">
<title>admin_routes&#45;&gt;admin_mw</title>
<path fill="none" stroke="black" d="M2771,-321.4C2771,-321.4 2771,-218.31 2771,-218.31"/>
<polygon fill="black" stroke="black" points="2774.5,-218.31 2771,-208.31 2767.5,-218.31 2774.5,-218.31"/>
<text xml:space="preserve" text-anchor="middle" x="2785.25" y="-265.45" font-family="Helvetica,sans-Serif" font-size="9.00">Check Admin Role</text>
</g>
<!-- admin_routes&#45;&gt;users -->
<g id="edge17" class="edge">
<title>admin_routes&#45;&gt;users</title>
<path fill="none" stroke="black" d="M2810.32,-329C2897.03,-329 3097,-329 3097,-329 3097,-329 3097,-71.86 3097,-71.86"/>
<polygon fill="black" stroke="black" points="3100.5,-71.86 3097,-61.86 3093.5,-71.86 3100.5,-71.86"/>
<text xml:space="preserve" text-anchor="middle" x="3134.88" y="-185.2" font-family="Helvetica,sans-Serif" font-size="9.00">User Management</text>
</g>
<!-- activity_logs -->
<g id="node20" class="node">
<title>activity_logs</title>
<path fill="lightgreen" stroke="black" d="M3321.88,-56C3321.88,-58.21 3297.28,-60 3267,-60 3236.72,-60 3212.12,-58.21 3212.12,-56 3212.12,-56 3212.12,-20 3212.12,-20 3212.12,-17.79 3236.72,-16 3267,-16 3297.28,-16 3321.88,-17.79 3321.88,-20 3321.88,-20 3321.88,-56 3321.88,-56"/>
<path fill="none" stroke="black" d="M3321.88,-56C3321.88,-53.79 3297.28,-52 3267,-52 3236.72,-52 3212.12,-53.79 3212.12,-56"/>
<text xml:space="preserve" text-anchor="middle" x="3267" y="-40.5" font-family="Helvetica,sans-Serif" font-size="10.00">Activity Logs</text>
<text xml:space="preserve" text-anchor="middle" x="3267" y="-28.5" font-family="Helvetica,sans-Serif" font-size="10.00">(admin actions, audit)</text>
</g>
<!-- admin_routes&#45;&gt;activity_logs -->
<g id="edge18" class="edge">
<title>admin_routes&#45;&gt;activity_logs</title>
<path fill="none" stroke="black" d="M2810.5,-336C2930.93,-336 3285.29,-336 3285.29,-336 3285.29,-336 3285.29,-71.91 3285.29,-71.91"/>
<polygon fill="black" stroke="black" points="3288.79,-71.91 3285.29,-61.91 3281.79,-71.91 3288.79,-71.91"/>
<text xml:space="preserve" text-anchor="middle" x="3313" y="-185.2" font-family="Helvetica,sans-Serif" font-size="9.00">Log Actions</text>
</g>
<!-- gemini_keys -->
<g id="node21" class="node">
<title>gemini_keys</title>
<path fill="lightgreen" stroke="black" d="M3475.75,-56C3475.75,-58.21 3454.35,-60 3428,-60 3401.65,-60 3380.25,-58.21 3380.25,-56 3380.25,-56 3380.25,-20 3380.25,-20 3380.25,-17.79 3401.65,-16 3428,-16 3454.35,-16 3475.75,-17.79 3475.75,-20 3475.75,-20 3475.75,-56 3475.75,-56"/>
<path fill="none" stroke="black" d="M3475.75,-56C3475.75,-53.79 3454.35,-52 3428,-52 3401.65,-52 3380.25,-53.79 3380.25,-56"/>
<text xml:space="preserve" text-anchor="middle" x="3428" y="-40.5" font-family="Helvetica,sans-Serif" font-size="10.00">Gemini API Keys</text>
<text xml:space="preserve" text-anchor="middle" x="3428" y="-28.5" font-family="Helvetica,sans-Serif" font-size="10.00">(AI service config)</text>
</g>
<!-- admin_routes&#45;&gt;gemini_keys -->
<g id="edge19" class="edge">
<title>admin_routes&#45;&gt;gemini_keys</title>
<path fill="none" stroke="black" d="M2810.62,-343C2952.66,-343 3428,-343 3428,-343 3428,-343 3428,-71.94 3428,-71.94"/>
<polygon fill="black" stroke="black" points="3431.5,-71.94 3428,-61.94 3424.5,-71.94 3431.5,-71.94"/>
<text xml:space="preserve" text-anchor="middle" x="3497.25" y="-185.2" font-family="Helvetica,sans-Serif" font-size="9.00">API Key Management</text>
</g>
<!-- system_settings -->
<g id="node22" class="node">
<title>system_settings</title>
<path fill="lightgreen" stroke="black" d="M3622.38,-56C3622.38,-58.21 3602.49,-60 3578,-60 3553.51,-60 3533.62,-58.21 3533.62,-56 3533.62,-56 3533.62,-20 3533.62,-20 3533.62,-17.79 3553.51,-16 3578,-16 3602.49,-16 3622.38,-17.79 3622.38,-20 3622.38,-20 3622.38,-56 3622.38,-56"/>
<path fill="none" stroke="black" d="M3622.38,-56C3622.38,-53.79 3602.49,-52 3578,-52 3553.51,-52 3533.62,-53.79 3533.62,-56"/>
<text xml:space="preserve" text-anchor="middle" x="3578" y="-40.5" font-family="Helvetica,sans-Serif" font-size="10.00">System Settings</text>
<text xml:space="preserve" text-anchor="middle" x="3578" y="-28.5" font-family="Helvetica,sans-Serif" font-size="10.00">(config, limits)</text>
</g>
<!-- admin_routes&#45;&gt;system_settings -->
<g id="edge20" class="edge">
<title>admin_routes&#45;&gt;system_settings</title>
<path fill="none" stroke="black" d="M2810.47,-350C2972.49,-350 3578,-350 3578,-350 3578,-350 3578,-71.95 3578,-71.95"/>
<polygon fill="black" stroke="black" points="3581.5,-71.95 3578,-61.95 3574.5,-71.95 3581.5,-71.95"/>
<text xml:space="preserve" text-anchor="middle" x="3687.62" y="-185.2" font-family="Helvetica,sans-Serif" font-size="9.00">System Config</text>
</g>
<!-- chat_routes&#45;&gt;rate_limit -->
<g id="edge14" class="edge">
<title>chat_routes&#45;&gt;rate_limit</title>
<path fill="none" stroke="black" d="M2247.44,-321.2C2247.44,-285.63 2247.44,-211 2247.44,-211 2247.44,-211 2442.94,-211 2442.94,-211 2442.94,-211 2442.94,-210.57 2442.94,-210.57"/>
<polygon fill="black" stroke="black" points="2446.44,-218.18 2442.94,-208.18 2439.44,-218.18 2446.44,-218.18"/>
<text xml:space="preserve" text-anchor="middle" x="2388" y="-265.45" font-family="Helvetica,sans-Serif" font-size="9.00">Rate Limiting</text>
</g>
<!-- activity_log -->
<g id="node16" class="node">
<title>activity_log</title>
<path fill="lightblue" stroke="black" d="M2357.88,-206.5C2357.88,-206.5 2296.12,-206.5 2296.12,-206.5 2290.12,-206.5 2284.12,-200.5 2284.12,-194.5 2284.12,-194.5 2284.12,-182.5 2284.12,-182.5 2284.12,-176.5 2290.12,-170.5 2296.12,-170.5 2296.12,-170.5 2357.88,-170.5 2357.88,-170.5 2363.88,-170.5 2369.88,-176.5 2369.88,-182.5 2369.88,-182.5 2369.88,-194.5 2369.88,-194.5 2369.88,-200.5 2363.88,-206.5 2357.88,-206.5"/>
<text xml:space="preserve" text-anchor="middle" x="2327" y="-191" font-family="Helvetica,sans-Serif" font-size="10.00">Activity Logging</text>
<text xml:space="preserve" text-anchor="middle" x="2327" y="-179" font-family="Helvetica,sans-Serif" font-size="10.00">(Admin Actions)</text>
</g>
<!-- chat_routes&#45;&gt;activity_log -->
<g id="edge38" class="edge">
<title>chat_routes&#45;&gt;activity_log</title>
<path fill="none" stroke="black" d="M2269.25,-334C2281.61,-334 2292.38,-334 2292.38,-334 2292.38,-334 2292.38,-218.44 2292.38,-218.44"/>
<polygon fill="black" stroke="black" points="2295.88,-218.44 2292.38,-208.44 2288.88,-218.44 2295.88,-218.44"/>
<text xml:space="preserve" text-anchor="middle" x="2259.62" y="-265.45" font-family="Helvetica,sans-Serif" font-size="9.00">Log Conversations</text>
</g>
<!-- gemini_ai -->
<g id="node34" class="node">
<title>gemini_ai</title>
<path fill="gold" stroke="black" d="M1550.66,-216.58C1550.66,-216.58 1480.84,-192.42 1480.84,-192.42 1475.17,-190.46 1475.17,-186.54 1480.84,-184.58 1480.84,-184.58 1550.66,-160.42 1550.66,-160.42 1556.33,-158.46 1567.67,-158.46 1573.34,-160.42 1573.34,-160.42 1643.16,-184.58 1643.16,-184.58 1648.83,-186.54 1648.83,-190.46 1643.16,-192.42 1643.16,-192.42 1573.34,-216.58 1573.34,-216.58 1567.67,-218.54 1556.33,-218.54 1550.66,-216.58"/>
<text xml:space="preserve" text-anchor="middle" x="1562" y="-191" font-family="Helvetica,sans-Serif" font-size="10.00">Google Gemini AI</text>
<text xml:space="preserve" text-anchor="middle" x="1562" y="-179" font-family="Helvetica,sans-Serif" font-size="10.00">(Chat, Analysis)</text>
</g>
<!-- chat_routes&#45;&gt;gemini_ai -->
<g id="edge36" class="edge">
<title>chat_routes&#45;&gt;gemini_ai</title>
<path fill="none" stroke="black" d="M2216.5,-321.39C2216.5,-287 2216.5,-216 2216.5,-216 2216.5,-216 1587.79,-216 1587.79,-216"/>
<polygon fill="black" stroke="black" points="1587.79,-212.5 1577.79,-216 1587.79,-219.5 1587.79,-212.5"/>
<text xml:space="preserve" text-anchor="middle" x="1717.62" y="-265.45" font-family="Helvetica,sans-Serif" font-size="9.00">AI Chat Requests</text>
</g>
<!-- mcp_routes&#45;&gt;jwt_auth -->
<g id="edge15" class="edge">
<title>mcp_routes&#45;&gt;jwt_auth</title>
<path fill="none" stroke="black" d="M2384.69,-321.36C2384.69,-286.52 2384.69,-214 2384.69,-214 2384.69,-214 2581.44,-214 2581.44,-214 2581.44,-214 2581.44,-213.28 2581.44,-213.28"/>
<polygon fill="black" stroke="black" points="2584.94,-218.27 2581.44,-208.27 2577.94,-218.27 2584.94,-218.27"/>
<text xml:space="preserve" text-anchor="middle" x="2508" y="-265.45" font-family="Helvetica,sans-Serif" font-size="9.00">Validate Token</text>
</g>
<!-- mcp_manager -->
<g id="node18" class="node">
<title>mcp_manager</title>
<path fill="lightblue" stroke="black" d="M2060.25,-206.5C2060.25,-206.5 1973.75,-206.5 1973.75,-206.5 1967.75,-206.5 1961.75,-200.5 1961.75,-194.5 1961.75,-194.5 1961.75,-182.5 1961.75,-182.5 1961.75,-176.5 1967.75,-170.5 1973.75,-170.5 1973.75,-170.5 2060.25,-170.5 2060.25,-170.5 2066.25,-170.5 2072.25,-176.5 2072.25,-182.5 2072.25,-182.5 2072.25,-194.5 2072.25,-194.5 2072.25,-200.5 2066.25,-206.5 2060.25,-206.5"/>
<text xml:space="preserve" text-anchor="middle" x="2017" y="-191" font-family="Helvetica,sans-Serif" font-size="10.00">MCP Server Manager</text>
<text xml:space="preserve" text-anchor="middle" x="2017" y="-179" font-family="Helvetica,sans-Serif" font-size="10.00">(Start/Stop/Status)</text>
</g>
<!-- mcp_routes&#45;&gt;mcp_manager -->
<g id="edge23" class="edge">
<title>mcp_routes&#45;&gt;mcp_manager</title>
<path fill="none" stroke="black" d="M2348.19,-321.13C2348.19,-305.29 2348.19,-285 2348.19,-285 2348.19,-285 2047.12,-285 2047.12,-285 2047.12,-285 2047.12,-218.16 2047.12,-218.16"/>
<polygon fill="black" stroke="black" points="2050.63,-218.16 2047.13,-208.16 2043.63,-218.16 2050.63,-218.16"/>
<text xml:space="preserve" text-anchor="middle" x="2123.75" y="-265.45" font-family="Helvetica,sans-Serif" font-size="9.00">Start/Stop/Status</text>
</g>
<!-- activity_log&#45;&gt;admin_panel -->
<g id="edge43" class="edge">
<title>activity_log&#45;&gt;admin_panel</title>
<path fill="none" stroke="black" stroke-dasharray="1,5" d="M2300.62,-206.81C2300.62,-208.15 2300.62,-209 2300.62,-209 2300.62,-209 2145.88,-209 2145.88,-209 2145.88,-209 2145.88,-625.29 2145.88,-625.29"/>
<polygon fill="black" stroke="black" points="2142.38,-625.29 2145.88,-635.29 2149.38,-625.29 2142.38,-625.29"/>
<text xml:space="preserve" text-anchor="middle" x="2135.62" y="-432.58" font-family="Helvetica,sans-Serif" font-size="9.00">Display Logs</text>
</g>
<!-- activity_log&#45;&gt;activity_logs -->
<g id="edge21" class="edge">
<title>activity_log&#45;&gt;activity_logs</title>
<path fill="none" stroke="black" d="M2327,-170.18C2327,-166.64 2327,-164 2327,-164 2327,-164 3248.71,-164 3248.71,-164 3248.71,-164 3248.71,-71.75 3248.71,-71.75"/>
<polygon fill="black" stroke="black" points="3252.21,-71.75 3248.71,-61.75 3245.21,-71.75 3252.21,-71.75"/>
<text xml:space="preserve" text-anchor="middle" x="3222.62" y="-104.95" font-family="Helvetica,sans-Serif" font-size="9.00">Audit Trail</text>
</g>
<!-- user_mgmt -->
<g id="node17" class="node">
<title>user_mgmt</title>
<path fill="lightblue" stroke="black" d="M2214.12,-206.5C2214.12,-206.5 2141.88,-206.5 2141.88,-206.5 2135.88,-206.5 2129.88,-200.5 2129.88,-194.5 2129.88,-194.5 2129.88,-182.5 2129.88,-182.5 2129.88,-176.5 2135.88,-170.5 2141.88,-170.5 2141.88,-170.5 2214.12,-170.5 2214.12,-170.5 2220.12,-170.5 2226.12,-176.5 2226.12,-182.5 2226.12,-182.5 2226.12,-194.5 2226.12,-194.5 2226.12,-200.5 2220.12,-206.5 2214.12,-206.5"/>
<text xml:space="preserve" text-anchor="middle" x="2178" y="-185" font-family="Helvetica,sans-Serif" font-size="10.00">User Management</text>
</g>
<!-- user_mgmt&#45;&gt;users -->
<g id="edge22" class="edge">
<title>user_mgmt&#45;&gt;users</title>
<path fill="none" stroke="black" d="M2178,-170.12C2178,-128.58 2178,-31 2178,-31 2178,-31 3028.35,-31 3028.35,-31"/>
<polygon fill="black" stroke="black" points="3028.35,-34.5 3038.35,-31 3028.35,-27.5 3028.35,-34.5"/>
<text xml:space="preserve" text-anchor="middle" x="2537.38" y="-104.95" font-family="Helvetica,sans-Serif" font-size="9.00">User Operations</text>
</g>
<!-- mcp_router -->
<g id="node23" class="node">
<title>mcp_router</title>
<path fill="lightblue" stroke="black" d="M1194.38,-520.13C1194.38,-520.13 1147.62,-520.13 1147.62,-520.13 1141.62,-520.13 1135.62,-514.13 1135.62,-508.13 1135.62,-508.13 1135.62,-496.13 1135.62,-496.13 1135.62,-490.13 1141.62,-484.13 1147.62,-484.13 1147.62,-484.13 1194.38,-484.13 1194.38,-484.13 1200.38,-484.13 1206.38,-490.13 1206.38,-496.13 1206.38,-496.13 1206.38,-508.13 1206.38,-508.13 1206.38,-514.13 1200.38,-520.13 1194.38,-520.13"/>
<text xml:space="preserve" text-anchor="middle" x="1171" y="-504.63" font-family="Helvetica,sans-Serif" font-size="10.00">MCP Router</text>
<text xml:space="preserve" text-anchor="middle" x="1171" y="-492.63" font-family="Helvetica,sans-Serif" font-size="10.00">(/mcp/*)</text>
</g>
<!-- mcp_manager&#45;&gt;mcp_router -->
<g id="edge24" class="edge">
<title>mcp_manager&#45;&gt;mcp_router</title>
<path fill="none" stroke="black" stroke-dasharray="5,2" d="M1991.88,-206.99C1991.88,-273.84 1991.88,-499 1991.88,-499 1991.88,-499 1218.31,-499 1218.31,-499"/>
<polygon fill="black" stroke="black" points="1218.31,-495.5 1208.31,-499 1218.31,-502.5 1218.31,-495.5"/>
<text xml:space="preserve" text-anchor="middle" x="1976.62" y="-336.33" font-family="Helvetica,sans-Serif" font-size="9.00">Process Management</text>
</g>
<!-- mcp_manager&#45;&gt;mcp_router -->
<g id="edge42" class="edge">
<title>mcp_manager&#45;&gt;mcp_router</title>
<path fill="none" stroke="black" stroke-dasharray="1,5" d="M1976.81,-206.97C1976.81,-272.64 1976.81,-491 1976.81,-491 1976.81,-491 1218.18,-491 1218.18,-491"/>
<polygon fill="black" stroke="black" points="1218.18,-487.5 1208.18,-491 1218.18,-494.5 1218.18,-487.5"/>
<text xml:space="preserve" text-anchor="middle" x="1786" y="-336.33" font-family="Helvetica,sans-Serif" font-size="9.00">Health Checks</text>
</g>
<!-- jwt_validation -->
<g id="node32" class="node">
<title>jwt_validation</title>
<path fill="lightblue" stroke="black" d="M680.25,-357.63C680.25,-357.63 593.75,-357.63 593.75,-357.63 587.75,-357.63 581.75,-351.63 581.75,-345.63 581.75,-345.63 581.75,-333.63 581.75,-333.63 581.75,-327.63 587.75,-321.63 593.75,-321.63 593.75,-321.63 680.25,-321.63 680.25,-321.63 686.25,-321.63 692.25,-327.63 692.25,-333.63 692.25,-333.63 692.25,-345.63 692.25,-345.63 692.25,-351.63 686.25,-357.63 680.25,-357.63"/>
<text xml:space="preserve" text-anchor="middle" x="637" y="-336.13" font-family="Helvetica,sans-Serif" font-size="10.00">JWT Token Validation</text>
</g>
<!-- mcp_router&#45;&gt;jwt_validation -->
<g id="edge25" class="edge">
<title>mcp_router&#45;&gt;jwt_validation</title>
<path fill="none" stroke="black" d="M1143.81,-483.95C1143.81,-455.33 1143.81,-403 1143.81,-403 1143.81,-403 655.42,-403 655.42,-403 655.42,-403 655.42,-369.47 655.42,-369.47"/>
<polygon fill="black" stroke="black" points="658.92,-369.47 655.42,-359.47 651.92,-369.47 658.92,-369.47"/>
<text xml:space="preserve" text-anchor="middle" x="871.88" y="-432.58" font-family="Helvetica,sans-Serif" font-size="9.00">Authenticate Request</text>
</g>
<!-- tool_registry -->
<g id="node24" class="node">
<title>tool_registry</title>
<path fill="lightblue" stroke="black" d="M1065.88,-520.13C1065.88,-520.13 1016.12,-520.13 1016.12,-520.13 1010.12,-520.13 1004.12,-514.13 1004.12,-508.13 1004.12,-508.13 1004.12,-496.13 1004.12,-496.13 1004.12,-490.13 1010.12,-484.13 1016.12,-484.13 1016.12,-484.13 1065.88,-484.13 1065.88,-484.13 1071.88,-484.13 1077.88,-490.13 1077.88,-496.13 1077.88,-496.13 1077.88,-508.13 1077.88,-508.13 1077.88,-514.13 1071.88,-520.13 1065.88,-520.13"/>
<text xml:space="preserve" text-anchor="middle" x="1041" y="-504.63" font-family="Helvetica,sans-Serif" font-size="10.00">Tool Registry</text>
<text xml:space="preserve" text-anchor="middle" x="1041" y="-492.63" font-family="Helvetica,sans-Serif" font-size="10.00">(8+ Tools)</text>
</g>
<!-- tool_registry&#45;&gt;ai_apps -->
<g id="edge39" class="edge">
<title>tool_registry&#45;&gt;ai_apps</title>
<path fill="none" stroke="black" stroke-dasharray="5,2" d="M1014.59,-483.93C1014.59,-462.56 1014.59,-430 1014.59,-430 1014.59,-430 476.29,-430 476.29,-430 476.29,-430 476.29,-371.2 476.29,-371.2"/>
<polygon fill="black" stroke="black" points="479.79,-371.2 476.29,-361.2 472.79,-371.2 479.79,-371.2"/>
<text xml:space="preserve" text-anchor="middle" x="623.12" y="-432.58" font-family="Helvetica,sans-Serif" font-size="9.00">Tool Results</text>
</g>
<!-- file_ops -->
<g id="node27" class="node">
<title>file_ops</title>
<path fill="lightblue" stroke="black" d="M976.38,-357.63C976.38,-357.63 905.62,-357.63 905.62,-357.63 899.62,-357.63 893.62,-351.63 893.62,-345.63 893.62,-345.63 893.62,-333.63 893.62,-333.63 893.62,-327.63 899.62,-321.63 905.62,-321.63 905.62,-321.63 976.38,-321.63 976.38,-321.63 982.38,-321.63 988.38,-327.63 988.38,-333.63 988.38,-333.63 988.38,-345.63 988.38,-345.63 988.38,-351.63 982.38,-357.63 976.38,-357.63"/>
<text xml:space="preserve" text-anchor="middle" x="941" y="-342.13" font-family="Helvetica,sans-Serif" font-size="10.00">File Operations</text>
<text xml:space="preserve" text-anchor="middle" x="941" y="-330.13" font-family="Helvetica,sans-Serif" font-size="10.00">(read, list, search)</text>
</g>
<!-- tool_registry&#45;&gt;file_ops -->
<g id="edge27" class="edge">
<title>tool_registry&#45;&gt;file_ops</title>
<path fill="none" stroke="black" d="M1035.53,-483.84C1035.53,-441.44 1035.53,-340 1035.53,-340 1035.53,-340 1000.33,-340 1000.33,-340"/>
<polygon fill="black" stroke="black" points="1000.33,-336.5 990.33,-340 1000.33,-343.5 1000.33,-336.5"/>
<text xml:space="preserve" text-anchor="middle" x="1010.12" y="-432.58" font-family="Helvetica,sans-Serif" font-size="9.00">File Operations</text>
</g>
<!-- git_ops -->
<g id="node28" class="node">
<title>git_ops</title>
<path fill="lightblue" stroke="black" d="M1628,-357.63C1628,-357.63 1546,-357.63 1546,-357.63 1540,-357.63 1534,-351.63 1534,-345.63 1534,-345.63 1534,-333.63 1534,-333.63 1534,-327.63 1540,-321.63 1546,-321.63 1546,-321.63 1628,-321.63 1628,-321.63 1634,-321.63 1640,-327.63 1640,-333.63 1640,-333.63 1640,-345.63 1640,-345.63 1640,-351.63 1634,-357.63 1628,-357.63"/>
<text xml:space="preserve" text-anchor="middle" x="1587" y="-342.13" font-family="Helvetica,sans-Serif" font-size="10.00">Git Operations</text>
<text xml:space="preserve" text-anchor="middle" x="1587" y="-330.13" font-family="Helvetica,sans-Serif" font-size="10.00">(status, diff, commit)</text>
</g>
<!-- tool_registry&#45;&gt;git_ops -->
<g id="edge28" class="edge">
<title>tool_registry&#45;&gt;git_ops</title>
<path fill="none" stroke="black" d="M1065.12,-483.77C1065.12,-471.28 1065.12,-457 1065.12,-457 1065.12,-457 1587,-457 1587,-457 1587,-457 1587,-369.48 1587,-369.48"/>
<polygon fill="black" stroke="black" points="1590.5,-369.48 1587,-359.48 1583.5,-369.48 1590.5,-369.48"/>
<text xml:space="preserve" text-anchor="middle" x="1585.25" y="-432.58" font-family="Helvetica,sans-Serif" font-size="9.00">Git Operations</text>
</g>
<!-- run_terminal -->
<g id="node29" class="node">
<title>run_terminal</title>
<path fill="lightblue" stroke="black" d="M1140,-357.63C1140,-357.63 1058,-357.63 1058,-357.63 1052,-357.63 1046,-351.63 1046,-345.63 1046,-345.63 1046,-333.63 1046,-333.63 1046,-327.63 1052,-321.63 1058,-321.63 1058,-321.63 1140,-321.63 1140,-321.63 1146,-321.63 1152,-327.63 1152,-333.63 1152,-333.63 1152,-345.63 1152,-345.63 1152,-351.63 1146,-357.63 1140,-357.63"/>
<text xml:space="preserve" text-anchor="middle" x="1099" y="-342.13" font-family="Helvetica,sans-Serif" font-size="10.00">Terminal Commands</text>
<text xml:space="preserve" text-anchor="middle" x="1099" y="-330.13" font-family="Helvetica,sans-Serif" font-size="10.00">(safe execution)</text>
</g>
<!-- tool_registry&#45;&gt;run_terminal -->
<g id="edge29" class="edge">
<title>tool_registry&#45;&gt;run_terminal</title>
<path fill="none" stroke="black" d="M1071.5,-483.8C1071.5,-483.8 1071.5,-369.15 1071.5,-369.15"/>
<polygon fill="black" stroke="black" points="1075,-369.15 1071.5,-359.15 1068,-369.15 1075,-369.15"/>
<text xml:space="preserve" text-anchor="middle" x="1146.38" y="-432.58" font-family="Helvetica,sans-Serif" font-size="9.00">Terminal Commands</text>
</g>
<!-- web_search -->
<g id="node30" class="node">
<title>web_search</title>
<path fill="lightblue" stroke="black" d="M1310.38,-357.63C1310.38,-357.63 1221.62,-357.63 1221.62,-357.63 1215.62,-357.63 1209.62,-351.63 1209.62,-345.63 1209.62,-345.63 1209.62,-333.63 1209.62,-333.63 1209.62,-327.63 1215.62,-321.63 1221.62,-321.63 1221.62,-321.63 1310.38,-321.63 1310.38,-321.63 1316.38,-321.63 1322.38,-327.63 1322.38,-333.63 1322.38,-333.63 1322.38,-345.63 1322.38,-345.63 1322.38,-351.63 1316.38,-357.63 1310.38,-357.63"/>
<text xml:space="preserve" text-anchor="middle" x="1266" y="-342.13" font-family="Helvetica,sans-Serif" font-size="10.00">Web Search</text>
<text xml:space="preserve" text-anchor="middle" x="1266" y="-330.13" font-family="Helvetica,sans-Serif" font-size="10.00">(information gathering)</text>
</g>
<!-- tool_registry&#45;&gt;web_search -->
<g id="edge30" class="edge">
<title>tool_registry&#45;&gt;web_search</title>
<path fill="none" stroke="black" d="M1052.38,-483.79C1052.38,-448.81 1052.38,-376 1052.38,-376 1052.38,-376 1266,-376 1266,-376 1266,-376 1266,-369.33 1266,-369.33"/>
<polygon fill="black" stroke="black" points="1269.5,-369.33 1266,-359.33 1262.5,-369.33 1269.5,-369.33"/>
<text xml:space="preserve" text-anchor="middle" x="1286.12" y="-432.58" font-family="Helvetica,sans-Serif" font-size="9.00">Web Search</text>
</g>
<!-- code_analysis -->
<g id="node31" class="node">
<title>code_analysis</title>
<path fill="lightblue" stroke="black" d="M1463.75,-357.63C1463.75,-357.63 1392.25,-357.63 1392.25,-357.63 1386.25,-357.63 1380.25,-351.63 1380.25,-345.63 1380.25,-345.63 1380.25,-333.63 1380.25,-333.63 1380.25,-327.63 1386.25,-321.63 1392.25,-321.63 1392.25,-321.63 1463.75,-321.63 1463.75,-321.63 1469.75,-321.63 1475.75,-327.63 1475.75,-333.63 1475.75,-333.63 1475.75,-345.63 1475.75,-345.63 1475.75,-351.63 1469.75,-357.63 1463.75,-357.63"/>
<text xml:space="preserve" text-anchor="middle" x="1428" y="-342.13" font-family="Helvetica,sans-Serif" font-size="10.00">Code Analysis</text>
<text xml:space="preserve" text-anchor="middle" x="1428" y="-330.13" font-family="Helvetica,sans-Serif" font-size="10.00">(syntax, structure)</text>
</g>
<!-- tool_registry&#45;&gt;code_analysis -->
<g id="edge31" class="edge">
<title>tool_registry&#45;&gt;code_analysis</title>
<path fill="none" stroke="black" d="M1058.75,-483.7C1058.75,-451.64 1058.75,-389 1058.75,-389 1058.75,-389 1428,-389 1428,-389 1428,-389 1428,-369.53 1428,-369.53"/>
<polygon fill="black" stroke="black" points="1431.5,-369.53 1428,-359.53 1424.5,-369.53 1431.5,-369.53"/>
<text xml:space="preserve" text-anchor="middle" x="1427.62" y="-432.58" font-family="Helvetica,sans-Serif" font-size="9.00">Code Analysis</text>
</g>
<!-- resource_mgr -->
<g id="node25" class="node">
<title>resource_mgr</title>
<path fill="lightblue" stroke="black" d="M788.25,-520.13C788.25,-520.13 713.75,-520.13 713.75,-520.13 707.75,-520.13 701.75,-514.13 701.75,-508.13 701.75,-508.13 701.75,-496.13 701.75,-496.13 701.75,-490.13 707.75,-484.13 713.75,-484.13 713.75,-484.13 788.25,-484.13 788.25,-484.13 794.25,-484.13 800.25,-490.13 800.25,-496.13 800.25,-496.13 800.25,-508.13 800.25,-508.13 800.25,-514.13 794.25,-520.13 788.25,-520.13"/>
<text xml:space="preserve" text-anchor="middle" x="751" y="-498.63" font-family="Helvetica,sans-Serif" font-size="10.00">Resource Manager</text>
</g>
<!-- resource_mgr&#45;&gt;ai_apps -->
<g id="edge40" class="edge">
<title>resource_mgr&#45;&gt;ai_apps</title>
<path fill="none" stroke="black" stroke-dasharray="5,2" d="M701.58,-502C600.95,-502 381.71,-502 381.71,-502 381.71,-502 381.71,-371.05 381.71,-371.05"/>
<polygon fill="black" stroke="black" points="385.21,-371.05 381.71,-361.05 378.21,-371.05 385.21,-371.05"/>
<text xml:space="preserve" text-anchor="middle" x="416.12" y="-432.58" font-family="Helvetica,sans-Serif" font-size="9.00">Resources</text>
</g>
<!-- prompt_mgr -->
<g id="node26" class="node">
<title>prompt_mgr</title>
<path fill="lightblue" stroke="black" d="M934,-520.13C934,-520.13 870,-520.13 870,-520.13 864,-520.13 858,-514.13 858,-508.13 858,-508.13 858,-496.13 858,-496.13 858,-490.13 864,-484.13 870,-484.13 870,-484.13 934,-484.13 934,-484.13 940,-484.13 946,-490.13 946,-496.13 946,-496.13 946,-508.13 946,-508.13 946,-514.13 940,-520.13 934,-520.13"/>
<text xml:space="preserve" text-anchor="middle" x="902" y="-498.63" font-family="Helvetica,sans-Serif" font-size="10.00">Prompt Manager</text>
</g>
<!-- prompt_mgr&#45;&gt;ai_apps -->
<g id="edge41" class="edge">
<title>prompt_mgr&#45;&gt;ai_apps</title>
<path fill="none" stroke="black" stroke-dasharray="5,2" d="M875.81,-483.74C875.81,-466.71 875.81,-444 875.81,-444 875.81,-444 429,-444 429,-444 429,-444 429,-374.05 429,-374.05"/>
<polygon fill="black" stroke="black" points="432.5,-374.05 429,-364.05 425.5,-374.05 432.5,-374.05"/>
<text xml:space="preserve" text-anchor="middle" x="517.88" y="-432.58" font-family="Helvetica,sans-Serif" font-size="9.00">Prompts</text>
</g>
<!-- file_system -->
<g id="node36" class="node">
<title>file_system</title>
<polygon fill="lightyellow" stroke="black" points="1146.38,-206.5 1143.38,-210.5 1122.38,-210.5 1119.38,-206.5 1051.62,-206.5 1051.62,-170.5 1146.38,-170.5 1146.38,-206.5"/>
<text xml:space="preserve" text-anchor="middle" x="1099" y="-191" font-family="Helvetica,sans-Serif" font-size="10.00">Local File System</text>
<text xml:space="preserve" text-anchor="middle" x="1099" y="-179" font-family="Helvetica,sans-Serif" font-size="10.00">(Project files)</text>
</g>
<!-- file_ops&#45;&gt;file_system -->
<g id="edge32" class="edge">
<title>file_ops&#45;&gt;file_system</title>
<path fill="none" stroke="black" d="M941,-321.16C941,-280.94 941,-189 941,-189 941,-189 1039.65,-189 1039.65,-189"/>
<polygon fill="black" stroke="black" points="1039.65,-192.5 1049.65,-189 1039.65,-185.5 1039.65,-192.5"/>
<text xml:space="preserve" text-anchor="middle" x="988.75" y="-265.45" font-family="Helvetica,sans-Serif" font-size="9.00">Read/Write Files</text>
</g>
<!-- github_api -->
<g id="node35" class="node">
<title>github_api</title>
<path fill="lightgrey" stroke="black" d="M1296.53,-216.96C1296.53,-216.96 1215.72,-192.04 1215.72,-192.04 1209.98,-190.27 1209.98,-186.73 1215.72,-184.96 1215.72,-184.96 1296.53,-160.04 1296.53,-160.04 1302.27,-158.27 1313.73,-158.27 1319.47,-160.04 1319.47,-160.04 1400.28,-184.96 1400.28,-184.96 1406.02,-186.73 1406.02,-190.27 1400.28,-192.04 1400.28,-192.04 1319.47,-216.96 1319.47,-216.96 1313.73,-218.73 1302.27,-218.73 1296.53,-216.96"/>
<text xml:space="preserve" text-anchor="middle" x="1308" y="-191" font-family="Helvetica,sans-Serif" font-size="10.00">GitHub API</text>
<text xml:space="preserve" text-anchor="middle" x="1308" y="-179" font-family="Helvetica,sans-Serif" font-size="10.00">(Repository access)</text>
</g>
<!-- git_ops&#45;&gt;github_api -->
<g id="edge33" class="edge">
<title>git_ops&#45;&gt;github_api</title>
<path fill="none" stroke="black" d="M1587,-321.26C1587,-295.83 1587,-253 1587,-253 1587,-253 1396,-253 1396,-253 1396,-253 1396,-205.07 1396,-205.07"/>
<polygon fill="black" stroke="black" points="1399.5,-205.07 1396,-195.07 1392.5,-205.07 1399.5,-205.07"/>
<text xml:space="preserve" text-anchor="middle" x="1452.75" y="-265.45" font-family="Helvetica,sans-Serif" font-size="9.00">Repository Operations</text>
</g>
<!-- run_terminal&#45;&gt;file_system -->
<g id="edge34" class="edge">
<title>run_terminal&#45;&gt;file_system</title>
<path fill="none" stroke="black" d="M1099,-321.4C1099,-321.4 1099,-218.31 1099,-218.31"/>
<polygon fill="black" stroke="black" points="1102.5,-218.31 1099,-208.31 1095.5,-218.31 1102.5,-218.31"/>
<text xml:space="preserve" text-anchor="middle" x="1140.25" y="-265.45" font-family="Helvetica,sans-Serif" font-size="9.00">Execute Commands</text>
</g>
<!-- web_search&#45;&gt;github_api -->
<g id="edge35" class="edge">
<title>web_search&#45;&gt;github_api</title>
<path fill="none" stroke="black" d="M1266,-321.4C1266,-321.4 1266,-219.26 1266,-219.26"/>
<polygon fill="black" stroke="black" points="1269.5,-219.26 1266,-209.26 1262.5,-219.26 1269.5,-219.26"/>
<text xml:space="preserve" text-anchor="middle" x="1302.62" y="-265.45" font-family="Helvetica,sans-Serif" font-size="9.00">Search Repositories</text>
</g>
<!-- jwt_validation&#45;&gt;tool_registry -->
<g id="edge26" class="edge">
<title>jwt_validation&#45;&gt;tool_registry</title>
<path fill="none" stroke="black" d="M618.58,-358.12C618.58,-380.72 618.58,-416 618.58,-416 618.58,-416 1025.06,-416 1025.06,-416 1025.06,-416 1025.06,-472.35 1025.06,-472.35"/>
<polygon fill="black" stroke="black" points="1021.56,-472.35 1025.06,-482.35 1028.56,-472.35 1021.56,-472.35"/>
<text xml:space="preserve" text-anchor="middle" x="738" y="-432.58" font-family="Helvetica,sans-Serif" font-size="9.00">Route to Tool</text>
</g>
<!-- user_context -->
<g id="node33" class="node">
<title>user_context</title>
<path fill="lightblue" stroke="black" d="M823.88,-357.63C823.88,-357.63 762.12,-357.63 762.12,-357.63 756.12,-357.63 750.12,-351.63 750.12,-345.63 750.12,-345.63 750.12,-333.63 750.12,-333.63 750.12,-327.63 756.12,-321.63 762.12,-321.63 762.12,-321.63 823.88,-321.63 823.88,-321.63 829.88,-321.63 835.88,-327.63 835.88,-333.63 835.88,-333.63 835.88,-345.63 835.88,-345.63 835.88,-351.63 829.88,-357.63 823.88,-357.63"/>
<text xml:space="preserve" text-anchor="middle" x="793" y="-342.13" font-family="Helvetica,sans-Serif" font-size="10.00">User Context</text>
<text xml:space="preserve" text-anchor="middle" x="793" y="-330.13" font-family="Helvetica,sans-Serif" font-size="10.00">(project access)</text>
</g>
<!-- gemini_ai&#45;&gt;chat_routes -->
<g id="edge37" class="edge">
<title>gemini_ai&#45;&gt;chat_routes</title>
<path fill="none" stroke="black" d="M1570.63,-218C1647.15,-218 2206.88,-218 2206.88,-218 2206.88,-218 2206.88,-309.64 2206.88,-309.64"/>
<polygon fill="black" stroke="black" points="2203.38,-309.64 2206.88,-319.64 2210.38,-309.64 2203.38,-309.64"/>
<text xml:space="preserve" text-anchor="middle" x="1590.5" y="-265.45" font-family="Helvetica,sans-Serif" font-size="9.00">AI Responses</text>
</g>
</g>
</svg>
