<?xml version="1.0" encoding="UTF-8" standalone="no"?>
<!DOCTYPE svg PUBLIC "-//W3C//DTD SVG 1.1//EN"
 "http://www.w3.org/Graphics/SVG/1.1/DTD/svg11.dtd">
<!-- Generated by graphviz version 14.0.2 (20251019.1705)
 -->
<!-- Title: SensCoder_Architecture_Compact Pages: 1 -->
<svg width="412pt" height="745pt"
 viewBox="0.00 0.00 412.00 745.00" xmlns="http://www.w3.org/2000/svg" xmlns:xlink="http://www.w3.org/1999/xlink">
<g id="graph0" class="graph" transform="scale(1 1) rotate(0) translate(4 740.79)">
<title>SensCoder_Architecture_Compact</title>
<polygon fill="white" stroke="none" points="-4,4 -4,-740.79 408,-740.79 408,4 -4,4"/>
<g id="clust1" class="cluster">
<title>cluster_users</title>
<polygon fill="lightgrey" stroke="lightgrey" points="166,-659.64 166,-728.79 396,-728.79 396,-659.64 166,-659.64"/>
<text xml:space="preserve" text-anchor="middle" x="281" y="-716.24" font-family="Times New Roman,serif" font-size="9.00">Users &amp; AI Apps</text>
</g>
<g id="clust2" class="cluster">
<title>cluster_frontend</title>
<polygon fill="lightgreen" stroke="lightgreen" points="72,-566.09 72,-629.39 282,-629.39 282,-566.09 72,-566.09"/>
<text xml:space="preserve" text-anchor="middle" x="177" y="-616.84" font-family="Times New Roman,serif" font-size="9.00">Frontend (React/TS)</text>
</g>
<g id="clust3" class="cluster">
<title>cluster_backend</title>
<polygon fill="lightyellow" stroke="lightyellow" points="180,-300.3 180,-543.09 282,-543.09 282,-300.3 180,-300.3"/>
<text xml:space="preserve" text-anchor="middle" x="231" y="-530.54" font-family="Times New Roman,serif" font-size="9.00">Backend (Node.js)</text>
</g>
<g id="clust4" class="cluster">
<title>cluster_database</title>
<polygon fill="lightcoral" stroke="lightcoral" points="8,-381.35 8,-449.54 128,-449.54 128,-381.35 8,-381.35"/>
<text xml:space="preserve" text-anchor="middle" x="68" y="-436.99" font-family="Times New Roman,serif" font-size="9.00">Database (MongoDB)</text>
</g>
<g id="clust5" class="cluster">
<title>cluster_mcp</title>
<polygon fill="lightblue" stroke="lightblue" points="182,-121.75 182,-270.05 302,-270.05 302,-121.75 182,-121.75"/>
<text xml:space="preserve" text-anchor="middle" x="242" y="-257.5" font-family="Times New Roman,serif" font-size="9.00">MCP Server (FastAPI)</text>
</g>
<g id="clust6" class="cluster">
<title>cluster_external</title>
<polygon fill="lightpink" stroke="lightpink" points="82,-8 82,-91.5 334,-91.5 334,-8 82,-8"/>
<text xml:space="preserve" text-anchor="middle" x="208" y="-78.95" font-family="Times New Roman,serif" font-size="9.00">External Services</text>
</g>
<!-- web_users -->
<g id="node1" class="node">
<title>web_users</title>
<ellipse fill="beige" stroke="black" cx="217" cy="-684.96" rx="43.2" ry="17.32"/>
<text xml:space="preserve" text-anchor="middle" x="217" y="-686.56" font-family="Arial" font-size="7.00">Web Users</text>
<text xml:space="preserve" text-anchor="middle" x="217" y="-678.31" font-family="Arial" font-size="7.00">(Browser)</text>
</g>
<!-- dashboard -->
<g id="node3" class="node">
<title>dashboard</title>
<path fill="lightblue" stroke="black" d="M264.6,-602.89C264.6,-602.89 197.4,-602.89 197.4,-602.89 192.6,-602.89 187.8,-598.09 187.8,-593.29 187.8,-593.29 187.8,-583.69 187.8,-583.69 187.8,-578.89 192.6,-574.09 197.4,-574.09 197.4,-574.09 264.6,-574.09 264.6,-574.09 269.4,-574.09 274.2,-578.89 274.2,-583.69 274.2,-583.69 274.2,-593.29 274.2,-593.29 274.2,-598.09 269.4,-602.89 264.6,-602.89"/>
<text xml:space="preserve" text-anchor="middle" x="231" y="-590.09" font-family="Arial" font-size="7.00">Dashboard</text>
<text xml:space="preserve" text-anchor="middle" x="231" y="-581.84" font-family="Arial" font-size="7.00">(Chat, MCP)</text>
</g>
<!-- web_users&#45;&gt;dashboard -->
<g id="edge1" class="edge">
<title>web_users&#45;&gt;dashboard</title>
<path fill="none" stroke="black" d="M224,-667.71C224,-667.71 224,-609.89 224,-609.89"/>
<polygon fill="black" stroke="black" points="225.75,-609.89 224,-604.89 222.25,-609.89 225.75,-609.89"/>
<text xml:space="preserve" text-anchor="middle" x="231.38" y="-638.99" font-family="Arial" font-size="7.00">HTTP</text>
</g>
<!-- ai_apps -->
<g id="node2" class="node">
<title>ai_apps</title>
<ellipse fill="lightcyan" stroke="black" cx="335" cy="-684.96" rx="52.68" ry="17.32"/>
<text xml:space="preserve" text-anchor="middle" x="335" y="-686.56" font-family="Arial" font-size="7.00">AI Apps</text>
<text xml:space="preserve" text-anchor="middle" x="335" y="-678.31" font-family="Arial" font-size="7.00">(Claude, VS Code)</text>
</g>
<!-- mcp_core -->
<g id="node9" class="node">
<title>mcp_core</title>
<path fill="lightblue" stroke="black" d="M275.6,-243.55C275.6,-243.55 208.4,-243.55 208.4,-243.55 203.6,-243.55 198.8,-238.75 198.8,-233.95 198.8,-233.95 198.8,-224.35 198.8,-224.35 198.8,-219.55 203.6,-214.75 208.4,-214.75 208.4,-214.75 275.6,-214.75 275.6,-214.75 280.4,-214.75 285.2,-219.55 285.2,-224.35 285.2,-224.35 285.2,-233.95 285.2,-233.95 285.2,-238.75 280.4,-243.55 275.6,-243.55"/>
<text xml:space="preserve" text-anchor="middle" x="242" y="-230.75" font-family="Arial" font-size="7.00">MCP Core</text>
<text xml:space="preserve" text-anchor="middle" x="242" y="-222.5" font-family="Arial" font-size="7.00">(/mcp/* endpoints)</text>
</g>
<!-- ai_apps&#45;&gt;mcp_core -->
<g id="edge2" class="edge">
<title>ai_apps&#45;&gt;mcp_core</title>
<path fill="none" stroke="black" stroke-dasharray="5,2" d="M289.35,-675.85C289.35,-611.59 289.35,-229 289.35,-229 289.35,-229 288.98,-229 288.98,-229"/>
<polygon fill="black" stroke="black" points="292.15,-227.25 287.15,-229 292.15,-230.75 292.15,-227.25"/>
<text xml:space="preserve" text-anchor="middle" x="337.88" y="-459.14" font-family="Arial" font-size="7.00">MCP</text>
</g>
<!-- api_routes -->
<g id="node6" class="node">
<title>api_routes</title>
<path fill="lightblue" stroke="black" d="M264.6,-516.59C264.6,-516.59 197.4,-516.59 197.4,-516.59 192.6,-516.59 187.8,-511.79 187.8,-506.99 187.8,-506.99 187.8,-497.39 187.8,-497.39 187.8,-492.59 192.6,-487.79 197.4,-487.79 197.4,-487.79 264.6,-487.79 264.6,-487.79 269.4,-487.79 274.2,-492.59 274.2,-497.39 274.2,-497.39 274.2,-506.99 274.2,-506.99 274.2,-511.79 269.4,-516.59 264.6,-516.59"/>
<text xml:space="preserve" text-anchor="middle" x="231" y="-503.79" font-family="Arial" font-size="7.00">API Routes</text>
<text xml:space="preserve" text-anchor="middle" x="231" y="-495.54" font-family="Arial" font-size="7.00">(/auth, /admin, /chat)</text>
</g>
<!-- dashboard&#45;&gt;api_routes -->
<g id="edge3" class="edge">
<title>dashboard&#45;&gt;api_routes</title>
<path fill="none" stroke="black" d="M231,-573.85C231,-573.85 231,-523.41 231,-523.41"/>
<polygon fill="black" stroke="black" points="232.75,-523.41 231,-518.41 229.25,-523.41 232.75,-523.41"/>
</g>
<!-- admin -->
<g id="node4" class="node">
<title>admin</title>
<path fill="lightblue" stroke="black" d="M156.6,-602.89C156.6,-602.89 89.4,-602.89 89.4,-602.89 84.6,-602.89 79.8,-598.09 79.8,-593.29 79.8,-593.29 79.8,-583.69 79.8,-583.69 79.8,-578.89 84.6,-574.09 89.4,-574.09 89.4,-574.09 156.6,-574.09 156.6,-574.09 161.4,-574.09 166.2,-578.89 166.2,-583.69 166.2,-583.69 166.2,-593.29 166.2,-593.29 166.2,-598.09 161.4,-602.89 156.6,-602.89"/>
<text xml:space="preserve" text-anchor="middle" x="123" y="-590.09" font-family="Arial" font-size="7.00">Admin Panel</text>
<text xml:space="preserve" text-anchor="middle" x="123" y="-581.84" font-family="Arial" font-size="7.00">(Users, Logs)</text>
</g>
<!-- admin&#45;&gt;api_routes -->
<g id="edge4" class="edge">
<title>admin&#45;&gt;api_routes</title>
<path fill="none" stroke="black" d="M143.22,-573.82C143.22,-549.14 143.22,-502 143.22,-502 143.22,-502 180.86,-502 180.86,-502"/>
<polygon fill="black" stroke="black" points="180.86,-503.75 185.86,-502 180.86,-500.25 180.86,-503.75"/>
</g>
<!-- auth -->
<g id="node5" class="node">
<title>auth</title>
<path fill="lightblue" stroke="black" d="M264.6,-420.59C264.6,-420.59 197.4,-420.59 197.4,-420.59 192.6,-420.59 187.8,-415.79 187.8,-410.99 187.8,-410.99 187.8,-401.39 187.8,-401.39 187.8,-396.59 192.6,-391.79 197.4,-391.79 197.4,-391.79 264.6,-391.79 264.6,-391.79 269.4,-391.79 274.2,-396.59 274.2,-401.39 274.2,-401.39 274.2,-410.99 274.2,-410.99 274.2,-415.79 269.4,-420.59 264.6,-420.59"/>
<text xml:space="preserve" text-anchor="middle" x="231" y="-407.79" font-family="Arial" font-size="7.00">Auth &amp; Security</text>
<text xml:space="preserve" text-anchor="middle" x="231" y="-399.54" font-family="Arial" font-size="7.00">(JWT, Rate Limit)</text>
</g>
<!-- mcp_mgmt -->
<g id="node7" class="node">
<title>mcp_mgmt</title>
<path fill="lightblue" stroke="black" d="M264.6,-337.1C264.6,-337.1 197.4,-337.1 197.4,-337.1 192.6,-337.1 187.8,-332.3 187.8,-327.5 187.8,-327.5 187.8,-317.9 187.8,-317.9 187.8,-313.1 192.6,-308.3 197.4,-308.3 197.4,-308.3 264.6,-308.3 264.6,-308.3 269.4,-308.3 274.2,-313.1 274.2,-317.9 274.2,-317.9 274.2,-327.5 274.2,-327.5 274.2,-332.3 269.4,-337.1 264.6,-337.1"/>
<text xml:space="preserve" text-anchor="middle" x="231" y="-324.3" font-family="Arial" font-size="7.00">MCP Manager</text>
<text xml:space="preserve" text-anchor="middle" x="231" y="-316.05" font-family="Arial" font-size="7.00">(Start/Stop)</text>
</g>
<!-- auth&#45;&gt;mcp_mgmt -->
<g id="edge6" class="edge">
<title>auth&#45;&gt;mcp_mgmt</title>
<path fill="none" stroke="black" d="M231,-391.65C231,-391.65 231,-343.87 231,-343.87"/>
<polygon fill="black" stroke="black" points="232.75,-343.87 231,-338.87 229.25,-343.87 232.75,-343.87"/>
<text xml:space="preserve" text-anchor="middle" x="251.25" y="-360.7" font-family="Arial" font-size="7.00">MCP Control</text>
</g>
<!-- api_routes&#45;&gt;auth -->
<g id="edge5" class="edge">
<title>api_routes&#45;&gt;auth</title>
<path fill="none" stroke="black" d="M231,-487.61C231,-487.61 231,-427.42 231,-427.42"/>
<polygon fill="black" stroke="black" points="232.75,-427.42 231,-422.42 229.25,-427.42 232.75,-427.42"/>
<text xml:space="preserve" text-anchor="middle" x="238.12" y="-459.14" font-family="Arial" font-size="7.00">Auth</text>
</g>
<!-- db_models -->
<g id="node8" class="node">
<title>db_models</title>
<path fill="lightgreen" stroke="black" d="M120.25,-419.97C120.25,-421.66 96.83,-423.04 68,-423.04 39.17,-423.04 15.75,-421.66 15.75,-419.97 15.75,-419.97 15.75,-392.41 15.75,-392.41 15.75,-390.72 39.17,-389.35 68,-389.35 96.83,-389.35 120.25,-390.72 120.25,-392.41 120.25,-392.41 120.25,-419.97 120.25,-419.97"/>
<path fill="none" stroke="black" d="M120.25,-419.97C120.25,-418.29 96.83,-416.91 68,-416.91 39.17,-416.91 15.75,-418.29 15.75,-419.97"/>
<text xml:space="preserve" text-anchor="middle" x="68" y="-407.79" font-family="Arial" font-size="7.00">Collections:</text>
<text xml:space="preserve" text-anchor="middle" x="68" y="-399.54" font-family="Arial" font-size="7.00">Users, Logs, Keys, Settings</text>
</g>
<!-- api_routes&#45;&gt;db_models -->
<g id="edge7" class="edge">
<title>api_routes&#45;&gt;db_models</title>
<path fill="none" stroke="black" d="M187.39,-495C149.29,-495 100.03,-495 100.03,-495 100.03,-495 100.03,-429.83 100.03,-429.83"/>
<polygon fill="black" stroke="black" points="101.78,-429.83 100.03,-424.83 98.28,-429.83 101.78,-429.83"/>
<text xml:space="preserve" text-anchor="middle" x="102.5" y="-459.14" font-family="Arial" font-size="7.00">CRUD</text>
</g>
<!-- gemini -->
<g id="node11" class="node">
<title>gemini</title>
<path fill="gold" stroke="black" d="M142.79,-60.71C142.79,-60.71 101.21,-44.79 101.21,-44.79 95.6,-42.65 95.6,-38.35 101.21,-36.21 101.21,-36.21 142.79,-20.29 142.79,-20.29 148.4,-18.15 159.6,-18.15 165.21,-20.29 165.21,-20.29 206.79,-36.21 206.79,-36.21 212.4,-38.35 212.4,-42.65 206.79,-44.79 206.79,-44.79 165.21,-60.71 165.21,-60.71 159.6,-62.85 148.4,-62.85 142.79,-60.71"/>
<text xml:space="preserve" text-anchor="middle" x="154" y="-42.1" font-family="Arial" font-size="7.00">Gemini AI</text>
<text xml:space="preserve" text-anchor="middle" x="154" y="-33.85" font-family="Arial" font-size="7.00">(Chat/Analysis)</text>
</g>
<!-- api_routes&#45;&gt;gemini -->
<g id="edge12" class="edge">
<title>api_routes&#45;&gt;gemini</title>
<path fill="none" stroke="black" d="M187.36,-509C183.38,-509 180.8,-509 180.8,-509 180.8,-509 180.8,-61.55 180.8,-61.55"/>
<polygon fill="black" stroke="black" points="182.55,-61.55 180.8,-56.55 179.05,-61.55 182.55,-61.55"/>
<text xml:space="preserve" text-anchor="middle" x="161.5" y="-279.65" font-family="Arial" font-size="7.00">Chat</text>
</g>
<!-- mcp_mgmt&#45;&gt;mcp_core -->
<g id="edge8" class="edge">
<title>mcp_mgmt&#45;&gt;mcp_core</title>
<path fill="none" stroke="black" stroke-dasharray="5,2" d="M236.5,-308.08C236.5,-308.08 236.5,-250.49 236.5,-250.49"/>
<polygon fill="black" stroke="black" points="238.25,-250.49 236.5,-245.49 234.75,-250.49 238.25,-250.49"/>
<text xml:space="preserve" text-anchor="middle" x="248.38" y="-279.65" font-family="Arial" font-size="7.00">Manage</text>
</g>
<!-- tools -->
<g id="node10" class="node">
<title>tools</title>
<path fill="lightblue" stroke="black" d="M282.58,-162.5C282.58,-162.5 201.42,-162.5 201.42,-162.5 195.96,-162.5 190.5,-157.04 190.5,-151.58 190.5,-151.58 190.5,-140.67 190.5,-140.67 190.5,-135.21 195.96,-129.75 201.42,-129.75 201.42,-129.75 282.58,-129.75 282.58,-129.75 288.04,-129.75 293.5,-135.21 293.5,-140.67 293.5,-140.67 293.5,-151.58 293.5,-151.58 293.5,-157.04 288.04,-162.5 282.58,-162.5"/>
<text xml:space="preserve" text-anchor="middle" x="242" y="-151.85" font-family="Arial" font-size="7.00">Tools (8+)</text>
<text xml:space="preserve" text-anchor="middle" x="242" y="-143.6" font-family="Arial" font-size="7.00">File, Git, Terminal,</text>
<text xml:space="preserve" text-anchor="middle" x="242" y="-135.35" font-family="Arial" font-size="7.00">Web Search, Code Analysis</text>
</g>
<!-- mcp_core&#45;&gt;tools -->
<g id="edge9" class="edge">
<title>mcp_core&#45;&gt;tools</title>
<path fill="none" stroke="black" d="M242,-214.31C242,-214.31 242,-169.35 242,-169.35"/>
<polygon fill="black" stroke="black" points="243.75,-169.35 242,-164.35 240.25,-169.35 243.75,-169.35"/>
<text xml:space="preserve" text-anchor="middle" x="254.75" y="-186.1" font-family="Arial" font-size="7.00">Execute</text>
</g>
<!-- tools&#45;&gt;gemini -->
<g id="edge11" class="edge">
<title>tools&#45;&gt;gemini</title>
<path fill="none" stroke="black" d="M204.25,-129.62C204.25,-129.62 204.25,-52.69 204.25,-52.69"/>
<polygon fill="black" stroke="black" points="206,-52.69 204.25,-47.69 202.5,-52.69 206,-52.69"/>
<text xml:space="preserve" text-anchor="middle" x="224.38" y="-101.1" font-family="Arial" font-size="7.00">AI Calls</text>
</g>
<!-- filesystem -->
<g id="node12" class="node">
<title>filesystem</title>
<polygon fill="lightyellow" stroke="black" points="326.2,-54.9 323.8,-58.1 307,-58.1 304.6,-54.9 239.8,-54.9 239.8,-26.1 326.2,-26.1 326.2,-54.9"/>
<text xml:space="preserve" text-anchor="middle" x="283" y="-42.1" font-family="Arial" font-size="7.00">File System</text>
<text xml:space="preserve" text-anchor="middle" x="283" y="-33.85" font-family="Arial" font-size="7.00">&amp; GitHub API</text>
</g>
<!-- tools&#45;&gt;filesystem -->
<g id="edge10" class="edge">
<title>tools&#45;&gt;filesystem</title>
<path fill="none" stroke="black" d="M266.65,-129.62C266.65,-129.62 266.65,-61.7 266.65,-61.7"/>
<polygon fill="black" stroke="black" points="268.4,-61.7 266.65,-56.7 264.9,-61.7 268.4,-61.7"/>
<text xml:space="preserve" text-anchor="middle" x="284.62" y="-101.1" font-family="Arial" font-size="7.00">Access</text>
</g>
</g>
</svg>
